<?xml version="1.0" standalone="no"?>
<!DOCTYPE svg PUBLIC "-//W3C//DTD SVG 20010904//EN"
 "http://www.w3.org/TR/2001/REC-SVG-20010904/DTD/svg10.dtd">
<svg version="1.0" xmlns="http://www.w3.org/2000/svg"
 width="768.000000pt" height="768.000000pt" viewBox="0 0 768.000000 768.000000"
 preserveAspectRatio="xMidYMid meet">
<metadata>
Created by potrace 1.11, written by Peter Selinger 2001-2013
</metadata>
<g transform="translate(0.000000,768.000000) scale(0.100000,-0.100000)"
fill="#000000" stroke="none">
<path d="M2963 6759 c-96 -135 -91 -126 -69 -109 10 8 41 46 68 85 27 38 55
70 61 70 7 0 15 -16 18 -35 l6 -35 2 32 c0 17 -3 34 -9 38 -5 3 -7 12 -3 20
14 39 -21 7 -74 -66z"/>
<path d="M2732 6698 c-94 -149 -87 -157 9 -10 35 53 69 101 76 105 14 9 18 37
5 37 -4 0 -45 -59 -90 -132z"/>
<path d="M3171 6644 c0 -11 3 -14 6 -6 3 7 2 16 -1 19 -3 4 -6 -2 -5 -13z"/>
<path d="M2411 6474 c0 -11 3 -14 6 -6 3 7 2 16 -1 19 -3 4 -6 -2 -5 -13z"/>
<path d="M3445 6440 c3 -5 8 -10 11 -10 2 0 4 5 4 10 0 6 -5 10 -11 10 -5 0
-7 -4 -4 -10z"/>
<path d="M2695 6384 c-147 -22 -307 -62 -429 -109 -166 -62 -280 -99 -495
-160 -187 -52 -385 -131 -458 -181 -90 -62 -187 -173 -232 -266 -74 -154 -105
-348 -83 -522 13 -101 33 -129 95 -138 25 -3 56 -13 69 -22 31 -22 35 -21 53
14 21 40 39 38 87 -10 23 -22 44 -40 48 -40 4 0 11 15 14 34 13 71 40 69 116
-8 24 -25 49 -46 55 -46 5 0 23 23 40 51 16 27 40 60 53 72 l23 22 43 -49 42
-49 57 72 c32 39 62 71 67 71 4 0 22 -22 39 -50 17 -27 35 -50 40 -50 5 0 24
27 43 60 45 82 67 88 101 27 l19 -32 24 28 c13 16 24 34 24 41 0 7 9 21 20 31
19 17 21 17 61 -20 l42 -38 23 26 c26 31 40 33 64 12 15 -14 24 -10 96 36 72
48 132 79 150 79 16 0 -46 -55 -111 -100 -87 -58 -128 -80 -154 -80 -11 0 -34
-17 -51 -37 -18 -21 -34 -33 -36 -28 -2 6 -13 25 -24 42 -25 42 -46 34 -61
-21 -11 -40 -34 -76 -50 -76 -5 0 -23 16 -40 35 -38 41 -48 37 -84 -35 -44
-87 -77 -91 -115 -15 -14 28 -29 50 -35 49 -5 0 -29 -28 -53 -62 -48 -69 -85
-88 -109 -57 -7 11 -13 31 -13 46 0 14 -6 32 -14 38 -12 10 -21 2 -50 -43 -46
-73 -75 -75 -142 -14 -51 47 -64 42 -64 -23 0 -70 -48 -73 -88 -6 -11 19 -29
36 -40 39 -16 5 -23 -2 -37 -37 -21 -56 -39 -62 -66 -22 -32 46 -48 57 -86 57
-30 0 -33 -3 -33 -29 0 -41 44 -159 98 -265 54 -105 146 -208 222 -250 56 -31
186 -56 287 -56 71 0 81 -9 108 -96 20 -67 48 -279 40 -313 -11 -51 -137 -152
-270 -218 -33 -17 -123 -54 -201 -82 -262 -97 -364 -195 -396 -381 -29 -170
50 -311 219 -392 145 -68 306 -98 535 -98 121 0 128 -1 142 -22 8 -13 18 -36
22 -53 18 -77 110 -300 159 -387 30 -53 55 -103 55 -112 0 -9 -14 -64 -30
-123 -17 -59 -33 -144 -36 -188 -11 -135 33 -303 99 -381 15 -18 27 -37 27
-44 0 -7 -19 -32 -43 -56 -91 -92 -89 -124 8 -124 36 0 65 -3 65 -7 0 -5 -14
-32 -30 -62 -17 -30 -30 -60 -30 -68 0 -17 62 -17 155 1 39 8 71 13 73 11 1
-1 -12 -32 -29 -69 -27 -57 -30 -70 -18 -81 12 -10 27 -9 89 6 188 46 310 61
582 69 183 5 272 11 282 19 9 7 17 40 21 79 21 228 37 307 67 323 32 17 55 -6
78 -78 12 -38 42 -108 66 -157 50 -99 51 -90 -21 -175 -34 -42 -36 -46 -19
-58 11 -8 48 -13 99 -13 45 0 84 -2 87 -5 3 -4 -1 -32 -10 -64 -18 -66 -13
-86 23 -103 24 -11 101 4 250 47 19 6 20 1 20 -66 0 -100 4 -102 148 -46 138
54 275 83 484 101 133 12 158 17 198 40 76 45 100 118 109 336 6 143 28 256
71 377 50 140 47 137 172 166 331 78 865 307 1308 561 294 169 507 316 618
427 58 58 97 106 97 118 0 11 -11 28 -25 39 -23 18 -37 19 -242 15 -192 -5
-233 -3 -343 16 -212 36 -549 132 -557 158 -4 10 96 80 108 76 9 -3 64 56 58
62 -3 2 -46 -25 -96 -60 -51 -36 -101 -65 -112 -65 -11 0 -64 23 -118 51 -54
28 -147 77 -208 108 -99 51 -177 104 -415 286 -180 137 -396 339 -653 609
l-150 158 65 42 c36 22 87 54 113 69 26 15 45 31 42 34 -5 5 -58 -25 -205
-118 -20 -12 -24 -12 -32 1 -4 8 -74 94 -155 190 -81 96 -186 236 -235 310
-48 74 -108 167 -133 205 -71 108 -182 345 -197 417 -39 197 -114 448 -160
538 -58 113 -250 278 -357 306 -177 47 -214 55 -287 58 -45 2 -94 2 -111 0z
m-169 -685 c94 -58 98 -167 8 -228 -68 -47 -159 -18 -200 61 -22 43 -5 97 47
149 46 46 91 52 145 18z m248 -2091 c-18 -62 -125 -200 -265 -346 -174 -180
-228 -248 -275 -347 -45 -94 -56 -174 -34 -260 45 -177 174 -247 403 -216 172
22 421 125 641 263 60 37 114 68 120 68 20 -1 -77 -81 -181 -150 -118 -78
-226 -132 -368 -185 -142 -53 -221 -67 -345 -63 -91 3 -113 7 -162 31 -180 88
-248 321 -152 523 41 88 107 168 309 374 105 107 215 225 245 263 55 69 77 84
64 45z"/>
<path d="M3704 6058 l-19 -23 23 19 c21 18 27 26 19 26 -2 0 -12 -10 -23 -22z"/>
<path d="M4160 5840 c-10 -6 -11 -10 -3 -10 7 0 -27 -60 -75 -132 -102 -153
-132 -202 -132 -213 0 -5 39 52 86 126 48 74 102 153 120 176 43 53 45 80 4
53z"/>
<path d="M4095 5401 c-3 -6 -11 -9 -16 -6 -5 4 -9 2 -9 -3 0 -5 -55 -58 -122
-117 -126 -110 -165 -152 -154 -162 3 -4 6 -1 6 5 0 10 200 192 281 255 18 14
31 29 27 32 -3 4 -9 1 -13 -4z"/>
<path d="M4304 5178 c-11 -13 -26 -32 -34 -43 -12 -17 -10 -16 11 3 14 12 29
19 34 15 4 -5 5 -3 2 4 -4 6 -2 13 4 15 7 2 10 10 8 17 -3 8 -11 5 -25 -11z"/>
<path d="M4239 5093 c-13 -16 -12 -17 4 -4 16 13 21 21 13 21 -2 0 -10 -8 -17
-17z"/>
<path d="M5008 4504 c-3 -12 -1 -30 5 -40 13 -22 16 -194 4 -239 -6 -26 -6
-27 5 -10 18 30 21 161 5 240 -9 46 -15 63 -19 49z"/>
<path d="M4969 4138 c-17 -24 -18 -29 -6 -19 18 14 42 51 33 51 -3 0 -15 -15
-27 -32z"/>
<path d="M5050 4049 c41 -11 80 -25 85 -31 7 -7 6 -9 -1 -5 -6 3 -11 0 -11 -8
0 -10 5 -11 19 -4 10 5 18 14 18 19 0 10 -85 36 -145 44 -22 3 -6 -3 35 -15z"/>
<path d="M5070 3969 l-25 -20 33 16 c17 8 32 18 32 20 0 10 -16 4 -40 -16z"/>
<path d="M5580 3821 c0 -16 -2 -44 -5 -62 -4 -24 -3 -28 3 -14 7 16 10 12 15
-20 4 -22 7 -58 7 -79 0 -22 3 -37 6 -33 10 9 -7 237 -17 237 -5 0 -9 -13 -9
-29z"/>
<path d="M5205 3730 c-3 -5 -1 -10 4 -10 6 0 11 5 11 10 0 6 -2 10 -4 10 -3 0
-8 -4 -11 -10z"/>
<path d="M5556 3694 c-4 -14 -5 -28 -3 -31 3 -2 8 8 11 23 4 14 5 28 3 31 -3
2 -8 -8 -11 -23z"/>
<path d="M5695 3420 c4 -6 1 -19 -7 -28 -12 -15 -11 -16 5 -3 19 15 23 41 6
41 -5 0 -7 -5 -4 -10z"/>
<path d="M6300 3250 c0 -5 5 -10 11 -10 5 0 7 5 4 10 -3 6 -8 10 -11 10 -2 0
-4 -4 -4 -10z"/>
<path d="M6605 3093 c-22 -15 -47 -34 -55 -42 -8 -9 -32 -31 -53 -49 -64 -54
-26 -35 51 26 39 31 82 65 94 74 37 28 6 20 -37 -9z"/>
</g>
</svg>
